<svg width="900" height="700" viewBox="0 0 900 700" xmlns="http://www.w3.org/2000/svg">

  <!-- Fondo crema -->
  <rect width="900" height="700" fill="#fffaf0"/>

  <!-- Flores esquina superior izquierda -->
  <g transform="translate(45 55)">
    <circle cx="25" cy="25" r="10" fill="#e7a928"/>
    <circle cx="25" cy="7" r="13" fill="#f6cf62"/>
    <circle cx="25" cy="43" r="13" fill="#f6cf62"/>
    <circle cx="7" cy="25" r="13" fill="#f6cf62"/>
    <circle cx="43" cy="25" r="13" fill="#f6cf62"/>
    <circle cx="13" cy="13" r="11" fill="#f8d873"/>
    <circle cx="37" cy="13" r="11" fill="#f8d873"/>
    <circle cx="13" cy="37" r="11" fill="#f8d873"/>
    <circle cx="37" cy="37" r="11" fill="#f8d873"/>
    <circle cx="25" cy="25" r="8" fill="#d99b22"/>
  </g>

  <!-- Ramita superior izquierda -->
  <path d="M15 120 Q45 80 70 45" fill="none" stroke="#9aa66a" stroke-width="3"/>
  <ellipse cx="32" cy="96" rx="7" ry="15" transform="rotate(-35 32 96)" fill="#b4bd82"/>
  <ellipse cx="53" cy="70" rx="7" ry="15" transform="rotate(35 53 70)" fill="#b4bd82"/>

  <!-- Flores esquina superior derecha -->
  <g transform="translate(835 45)">
    <circle cx="25" cy="25" r="9" fill="#dfa127"/>
    <circle cx="25" cy="8" r="12" fill="#f4ca59"/>
    <circle cx="25" cy="42" r="12" fill="#f4ca59"/>
    <circle cx="8" cy="25" r="12" fill="#f4ca59"/>
    <circle cx="42" cy="25" r="12" fill="#f4ca59"/>
    <circle cx="25" cy="25" r="7" fill="#d79820"/>
  </g>

  <!-- Flores esquina inferior izquierda -->
  <g transform="translate(40 625)">
    <circle cx="25" cy="25" r="9" fill="#dfa127"/>
    <circle cx="25" cy="8" r="12" fill="#f5cc5d"/>
    <circle cx="25" cy="42" r="12" fill="#f5cc5d"/>
    <circle cx="8" cy="25" r="12" fill="#f5cc5d"/>
    <circle cx="42" cy="25" r="12" fill="#f5cc5d"/>
    <circle cx="25" cy="25" r="7" fill="#d79820"/>
  </g>

  <!-- Ramita inferior izquierda -->
  <path d="M15 680 Q45 650 70 610" fill="none" stroke="#9aa66a" stroke-width="3"/>
  <ellipse cx="32" cy="663" rx="7" ry="15" transform="rotate(-35 32 663)" fill="#b4bd82"/>
  <ellipse cx="53" cy="638" rx="7" ry="15" transform="rotate(35 53 638)" fill="#b4bd82"/>

  <!-- Flores esquina inferior derecha -->
  <g transform="translate(835 625)">
    <circle cx="25" cy="25" r="9" fill="#dfa127"/>
    <circle cx="25" cy="8" r="12" fill="#f5cc5d"/>
    <circle cx="25" cy="42" r="12" fill="#f5cc5d"/>
    <circle cx="8" cy="25" r="12" fill="#f5cc5d"/>
    <circle cx="42" cy="25" r="12" fill="#f5cc5d"/>
    <circle cx="25" cy="25" r="7" fill="#d79820"/>
  </g>

  <!-- Flores pequeñas -->
  <g opacity="0.75">
    <circle cx="155" cy="35" r="5" fill="#e7b83e"/>
    <circle cx="165" cy="25" r="8" fill="#f5d36d"/>
    <circle cx="175" cy="35" r="5" fill="#e7b83e"/>

    <circle cx="750" cy="650" r="5" fill="#e7b83e"/>
    <circle cx="760" cy="640" r="8" fill="#f5d36d"/>
    <circle cx="770" cy="650" r="5" fill="#e7b83e"/>
  </g>

  <!-- Pétalos sueltos -->
  <g fill="#e8b52f" opacity="0.55">
    <ellipse cx="120" cy="180" rx="5" ry="13" transform="rotate(-35 120 180)"/>
    <ellipse cx="790" cy="190" rx="5" ry="13" transform="rotate(35 790 190)"/>
    <ellipse cx="110" cy="520" rx="5" ry="13" transform="rotate(35 110 520)"/>
    <ellipse cx="790" cy="510" rx="5" ry="13" transform="rotate(-35 790 510)"/>
    <ellipse cx="450" cy="45" rx="4" ry="11" transform="rotate(20 450 45)"/>
    <ellipse cx="450" cy="660" rx="4" ry="11" transform="rotate(-20 450 660)"/>
  </g>

</svg>